<svg version="1.1" xmlns="http://www.w3.org/2000/svg" xmlns:xlink="http://www.w3.org/1999/xlink" width="1280" height="640" viewBox="0,0,1280,640"><g fill="none" fill-rule="nonzero" stroke="none" stroke-width="1" stroke-linecap="butt" stroke-linejoin="miter" stroke-miterlimit="10" stroke-dasharray="" stroke-dashoffset="0" font-family="none" font-weight="none" font-size="none" text-anchor="none" style="mix-blend-mode: normal"><path d="M2023,769l-1,1h-12l-1,1h-1h1l1,1h1l2,2h1l1,1v1l-2,2h-1l-1,1h-1l-1,1h-1l-4,4v1l-1,1v5h1l1,1h3l1,1h2l4,4l-1,1v1l-4,4h-1l-1,1h-2l-1,1h-2l-1,1h-13l-1,-1h-2l-2,-2v-1l-2,-2v-1l-1,-1v-1l-1,-1h-2l-3,3h-1l-1,1h-4l-1,1h-2l-1,1h-1l-1,1v1l-3,3h-1l-1,1v1l-1,1v1l-2,2h-1l-1,1h-1l-1,1h-1l-1,1h-1l-1,1v3l1,1v4l-1,1v3l-1,1h-1v1l-1,1v1l-1,1v1l1,1v1l1,1v6l1,1l-2,2v1l-2,2v5l1,1v1l-1,1v2l1,1v1l1,1h1l4,4h1l2,2h1l1,1h1l1,1v5l1,1l-5,5v1l-2,2v1l-1,1v2l-1,1v2l-2,2v1l-1,1v1l-1,1l1,1v1l3,3v6l-1,1v3l-1,1v12l6,6h2l1,1h1l1,1h1l7,7v5l-4,4v1l-1,1v4l-2,2h-1l-1,1h-1l-1,1h-1l-2,2v1l-2,2v2l-1,1v3l-1,1v9l-1,1v8l1,1v1l2,2v4l1,1v5l1,1v2l1,1v3l-5,5v1l1,1v5l1,1v5l-1,1v3l-1,1v8l5,5v7l-1,1v1l-1,1v2l1,1v1l1,1v4l-1,1v1l-1,1l1,1v1l2,2h2l2,2v5l1,1v2l1,1v2l-1,1v4l4,4v1l-1,1v1l-3,3v1l-1,1v2l-1,1v6l3,3h1l1,1h3l1,1h1l1,1h3l1,1h2l3,3v7l-4,4h-2l-1,1h-8l-1,1h-2l-1,1v1l-1,1v2l-1,1v3l-1,1v6l1,1v3l1,1v2l1,1v1l-1,1v1l-1,1v4l1,1v1l1,-1h13l1,1h2l1,1h1l2,2v1l2,2v1l-1,1h-1l-1,1h-1l-1,1h-2l-1,1h-3l-1,1h-7l-1,-1h-1l-2,-2v-1l-1,1v4l1,1v1l1,1v1l-1,1v1l-3,3v2l2,2v1l1,1v1l-1,1v12l1,1v3l1,1v4l1,1v1l3,3h2l1,1h10l1,1h3l1,1h1l1,1v2l3,3v1l1,1v1l1,1v12l-1,1h-1l-1,1h-4l-1,1h-2l-2,2h-1v2l-2,2h-1v2l4,4h1l1,1l-1,1v4l-1,1v1l-2,2h-1l-2,2v1l-1,1h120l1,-1v-2l-1,-1v-1l-1,-1v-1l-1,-1v-1l1,-1v-8l-1,-1v-7l-1,-1v-4l1,-1v-23l-1,-1v-11l-1,-1v-6l1,-1v-5l-1,-1v-4l-1,-1v-16l-1,-1l1,-1v-17l-1,-1v-5l-1,-1v-10l1,-1v-4l-1,-1v-6l1,-1l-1,-1v-1l-2,-2v-1l-2,-2v-1l-1,-1v-1l-1,-1l4,-4h1l2,-2h1v-1l2,-2v-1l1,-1v-6l-1,-1v-2l-1,-1v-16l-1,-1v-4l-1,1h-3l-1,1h-2l-2,-2v-1l2,-2h3l1,-1v-3l-1,-1v-1l-2,-2v-6l2,-2v-1l1,-1v-4l-1,-1v-23l-1,-1v-15l-1,-1v-3l-1,-1v-2l-4,-4l1,-1v-5l1,-1v-1l1,-1v-2l-1,-1v-2l-1,-1v-14l-1,-1v-6l-1,-1l1,-1v-8l-1,-1v-1l1,-1v-10l-1,-1v-7l-1,-1v-1l1,-1v-12l-1,-1v-23l-1,-1v-9l-1,-1v-3l1,-1v-11l-1,-1v-6l-1,-1v-6l-1,-1v-11l-1,-1v-6l-1,-1v-10l-1,-1v-18l-1,-1v-4l-1,-1v-4l-1,-1v-8l-1,-1v-3l-1,-1v-2l-1,-1v-5l1,-1l-1,-1h-2l-1,-1z" fill="none" stroke="#ff0000"></path><path d="M2003,791h1M2004,791h56" fill="none" stroke="#0000ff"></path><path d="M1954,813h1M1955,813h108" fill="none" stroke="#0000ff"></path><path d="M1943,835h122" fill="none" stroke="#0000ff"></path><path d="M1943,857l124,0" fill="none" stroke="#0000ff"></path><path d="M1955,879l113,0" fill="none" stroke="#0000ff"></path><path d="M1946,901h124" fill="none" stroke="#0000ff"></path><path d="M1946,923l125,0" fill="none" stroke="#0000ff"></path><path d="M1965,945h107" fill="none" stroke="#0000ff"></path><path d="M1949,967h123" fill="none" stroke="#0000ff"></path><path d="M1946,989h129" fill="none" stroke="#0000ff"></path><path d="M1952,1011l126,0" fill="none" stroke="#0000ff"></path><path d="M1948,1033h131" fill="none" stroke="#0000ff"></path><path d="M1951,1055h128" fill="none" stroke="#0000ff"></path><path d="M1957,1077h119M2076,1077h2M2078,1077h5" fill="none" stroke="#0000ff"></path><path d="M1960,1099h125" fill="none" stroke="#0000ff"></path><path d="M1975,1121h102" fill="none" stroke="#0000ff"></path><path d="M1955,1143h126" fill="none" stroke="#0000ff"></path><path d="M1955,1165h128" fill="none" stroke="#0000ff"></path><path d="M1956,1187h127" fill="none" stroke="#0000ff"></path><path d="M1955,1209h129" fill="none" stroke="#0000ff"></path><path d="M1981,1231h105" fill="none" stroke="#0000ff"></path><path d="M1976,1253h2M1978,1253h108" fill="none" stroke="#0000ff"></path><path d="M1971,1275h1M1972,1275h116" fill="none" stroke="#0000ff"></path><text x="2004" y="791" fill="#000000" stroke="none" font-family="Helvetica Neue" font-weight="normal" font-size="19" text-anchor="start">gue </text><text x="1955" y="813" fill="#000000" stroke="none" font-family="Helvetica Neue" font-weight="normal" font-size="19" text-anchor="start">viverra non </text><text x="1943" y="835" fill="#000000" stroke="none" font-family="Helvetica Neue" font-weight="normal" font-size="19" text-anchor="start">est in, plac­-</text><text x="1943" y="857" fill="#000000" stroke="none" font-family="Helvetica Neue" font-weight="normal" font-size="19" text-anchor="start">erat hen­drerit </text><text x="1955" y="879" fill="#000000" stroke="none" font-family="Helvetica Neue" font-weight="normal" font-size="19" text-anchor="start">me­tus. </text><text x="1946" y="901" fill="#000000" stroke="none" font-family="Helvetica Neue" font-weight="normal" font-size="19" text-anchor="start">Phasel­lus ali­-</text><text x="1946" y="923" fill="#000000" stroke="none" font-family="Helvetica Neue" font-weight="normal" font-size="19" text-anchor="start">quam dig­nis­-</text><text x="1965" y="945" fill="#000000" stroke="none" font-family="Helvetica Neue" font-weight="normal" font-size="19" text-anchor="start">sim nulla, ac</text><text x="1949" y="967" fill="#000000" stroke="none" font-family="Helvetica Neue" font-weight="normal" font-size="19" text-anchor="start">com­modo lec</text><text x="1946" y="989" fill="#000000" stroke="none" font-family="Helvetica Neue" font-weight="normal" font-size="19" text-anchor="start">­tus plac­erat vi­-</text><text x="1952" y="1011" fill="#000000" stroke="none" font-family="Helvetica Neue" font-weight="normal" font-size="19" text-anchor="start">tae. Ali­quam </text><text x="1948" y="1033" fill="#000000" stroke="none" font-family="Helvetica Neue" font-weight="normal" font-size="19" text-anchor="start">tem­pus vel </text><text x="1951" y="1055" fill="#000000" stroke="none" font-family="Helvetica Neue" font-weight="normal" font-size="19" text-anchor="start">quam ac </text><text x="1957" y="1077" fill="#000000" stroke="none" font-family="Helvetica Neue" font-weight="normal" font-size="19" text-anchor="start">lacinia. Ae­-</text><text x="1960" y="1099" fill="#000000" stroke="none" font-family="Helvetica Neue" font-weight="normal" font-size="19" text-anchor="start">­tae so­dales </text><text x="1975" y="1121" fill="#000000" stroke="none" font-family="Helvetica Neue" font-weight="normal" font-size="19" text-anchor="start">eros.</text><text x="1955" y="1143" fill="#000000" stroke="none" font-family="Helvetica Neue" font-weight="normal" font-size="19" text-anchor="start"></text><text x="1955" y="1165" fill="#000000" stroke="none" font-family="Helvetica Neue" font-weight="normal" font-size="19" text-anchor="start">Etiam est nisi, </text><text x="1956" y="1187" fill="#000000" stroke="none" font-family="Helvetica Neue" font-weight="normal" font-size="19" text-anchor="start">plac­erat eget </text><text x="1955" y="1209" fill="#000000" stroke="none" font-family="Helvetica Neue" font-weight="normal" font-size="19" text-anchor="start">in­ter­dum vel, </text><text x="1981" y="1231" fill="#000000" stroke="none" font-family="Helvetica Neue" font-weight="normal" font-size="19" text-anchor="start">biben­dum </text><text x="1978" y="1253" fill="#000000" stroke="none" font-family="Helvetica Neue" font-weight="normal" font-size="19" text-anchor="start">nisi. Ae­nean</text><text x="1972" y="1275" fill="#000000" stroke="none" font-family="Helvetica Neue" font-weight="normal" font-size="19" text-anchor="start">­lestie, tor­tor </text><path d="M2003,791h1M2004,791h56" fill="none" stroke="#0000ff"></path><path d="M1954,813h1M1955,813h108" fill="none" stroke="#0000ff"></path><path d="M1943,835h122" fill="none" stroke="#0000ff"></path><path d="M1943,857l124,0" fill="none" stroke="#0000ff"></path><path d="M1955,879l113,0" fill="none" stroke="#0000ff"></path><path d="M1946,901h124" fill="none" stroke="#0000ff"></path><path d="M1946,923l125,0" fill="none" stroke="#0000ff"></path><path d="M1965,945h107" fill="none" stroke="#0000ff"></path><path d="M1949,967h123" fill="none" stroke="#0000ff"></path><path d="M1946,989h129" fill="none" stroke="#0000ff"></path><path d="M1952,1011l126,0" fill="none" stroke="#0000ff"></path><path d="M1948,1033h131" fill="none" stroke="#0000ff"></path><path d="M1951,1055h128" fill="none" stroke="#0000ff"></path><path d="M1957,1077h119M2076,1077h2M2078,1077h5" fill="none" stroke="#0000ff"></path><path d="M1960,1099h125" fill="none" stroke="#0000ff"></path><path d="M1975,1121h102" fill="none" stroke="#0000ff"></path><path d="M1955,1143h126" fill="none" stroke="#0000ff"></path><path d="M1955,1165h128" fill="none" stroke="#0000ff"></path><path d="M1956,1187h127" fill="none" stroke="#0000ff"></path><path d="M1955,1209h129" fill="none" stroke="#0000ff"></path><path d="M1981,1231h105" fill="none" stroke="#0000ff"></path><path d="M1976,1253h2M1978,1253h108" fill="none" stroke="#0000ff"></path><path d="M1971,1275h1M1972,1275h116" fill="none" stroke="#0000ff"></path><text x="2004" y="791" fill="#000000" stroke="none" font-family="Helvetica Neue" font-weight="normal" font-size="19" text-anchor="start">gue </text><text x="1955" y="813" fill="#000000" stroke="none" font-family="Helvetica Neue" font-weight="normal" font-size="19" text-anchor="start">viverra non </text><text x="1943" y="835" fill="#000000" stroke="none" font-family="Helvetica Neue" font-weight="normal" font-size="19" text-anchor="start">est in, plac­-</text><text x="1943" y="857" fill="#000000" stroke="none" font-family="Helvetica Neue" font-weight="normal" font-size="19" text-anchor="start">erat hen­drerit </text><text x="1955" y="879" fill="#000000" stroke="none" font-family="Helvetica Neue" font-weight="normal" font-size="19" text-anchor="start">me­tus. </text><text x="1946" y="901" fill="#000000" stroke="none" font-family="Helvetica Neue" font-weight="normal" font-size="19" text-anchor="start">Phasel­lus ali­-</text><text x="1946" y="923" fill="#000000" stroke="none" font-family="Helvetica Neue" font-weight="normal" font-size="19" text-anchor="start">quam dig­nis­-</text><text x="1965" y="945" fill="#000000" stroke="none" font-family="Helvetica Neue" font-weight="normal" font-size="19" text-anchor="start">sim nulla, ac</text><text x="1949" y="967" fill="#000000" stroke="none" font-family="Helvetica Neue" font-weight="normal" font-size="19" text-anchor="start">com­modo lec</text><text x="1946" y="989" fill="#000000" stroke="none" font-family="Helvetica Neue" font-weight="normal" font-size="19" text-anchor="start">­tus plac­erat vi­-</text><text x="1952" y="1011" fill="#000000" stroke="none" font-family="Helvetica Neue" font-weight="normal" font-size="19" text-anchor="start">tae. Ali­quam </text><text x="1948" y="1033" fill="#000000" stroke="none" font-family="Helvetica Neue" font-weight="normal" font-size="19" text-anchor="start">tem­pus vel </text><text x="1951" y="1055" fill="#000000" stroke="none" font-family="Helvetica Neue" font-weight="normal" font-size="19" text-anchor="start">quam ac </text><text x="1957" y="1077" fill="#000000" stroke="none" font-family="Helvetica Neue" font-weight="normal" font-size="19" text-anchor="start">lacinia. Ae­-</text><text x="1960" y="1099" fill="#000000" stroke="none" font-family="Helvetica Neue" font-weight="normal" font-size="19" text-anchor="start">­tae so­dales </text><text x="1975" y="1121" fill="#000000" stroke="none" font-family="Helvetica Neue" font-weight="normal" font-size="19" text-anchor="start">eros.</text><text x="1955" y="1143" fill="#000000" stroke="none" font-family="Helvetica Neue" font-weight="normal" font-size="19" text-anchor="start"></text><text x="1955" y="1165" fill="#000000" stroke="none" font-family="Helvetica Neue" font-weight="normal" font-size="19" text-anchor="start">Etiam est nisi, </text><text x="1956" y="1187" fill="#000000" stroke="none" font-family="Helvetica Neue" font-weight="normal" font-size="19" text-anchor="start">plac­erat eget </text><text x="1955" y="1209" fill="#000000" stroke="none" font-family="Helvetica Neue" font-weight="normal" font-size="19" text-anchor="start">in­ter­dum vel, </text><text x="1981" y="1231" fill="#000000" stroke="none" font-family="Helvetica Neue" font-weight="normal" font-size="19" text-anchor="start">biben­dum </text><text x="1978" y="1253" fill="#000000" stroke="none" font-family="Helvetica Neue" font-weight="normal" font-size="19" text-anchor="start">nisi. Ae­nean</text><text x="1972" y="1275" fill="#000000" stroke="none" font-family="Helvetica Neue" font-weight="normal" font-size="19" text-anchor="start">­lestie, tor­tor </text></g></svg>