<svg version="1.1" xmlns="http://www.w3.org/2000/svg" xmlns:xlink="http://www.w3.org/1999/xlink" width="1299" height="649" viewBox="0,0,1299,649"><g fill="none" fill-rule="nonzero" stroke="none" stroke-width="1" stroke-linecap="butt" stroke-linejoin="miter" stroke-miterlimit="10" stroke-dasharray="" stroke-dashoffset="0" font-family="none" font-weight="none" font-size="none" text-anchor="none" style="mix-blend-mode: normal"><path d="M279,359l1,-1h2l1,1h1l1,1h1l2,2v1l1,1v2l-1,1v2l-1,1v2l-1,1v2l-1,1v2l-1,1v3l-1,1v1l-1,1v3l-2,2v2l-3,3h-1l-1,1h-1l-2,2h-2l-1,1h-3l-1,1h-21l-1,1h-39l-1,1h-52l-1,-1h-3l-1,-1h-1l-4,-4v-2l3,-3l2,2v2l1,1h1l1,1h3l1,1h1l1,-1h2l1,1h3l1,-1h40l1,-1h57l1,-1h5l1,-1h1l1,-1h1l1,-1h1v-1l1,-1v-2l1,-1v-2l1,-1v-3l1,-1v-1l1,-1v-3l1,-1v-2l1,-1v-3l1,-1v-2l1,-1l-1,-1v-1l-1,-1z" fill="none" stroke="#ff0000"></path><path d="M430,358l1,-1h3l1,1h1l3,3v4l-1,1v4l-1,1v5l-1,1v5l-1,1v3l-1,1v2l-5,5h-1l-1,1h-1l-1,1h-3l-1,1h-10l-1,1h-54l-1,1h-48l-1,-1h-3l-1,-1h-1l-4,-4v-4l1,-1v-1l1,-1l2,2v1l1,1v1l1,1v1h1l1,1h73l1,-1h2l1,1l1,-1h35l1,-1h3l1,-1h1l3,-3v-6l1,-1v-4l1,-1v-4l1,-1v-3l1,-1v-7l-1,-1z" fill="none" stroke="#ff0000"></path><path d="M579,356l1,-1h2l1,1h1l2,2v1l1,1v25l-1,1v1l-1,1v1l-2,2h-1l-1,1h-1l-1,1h-2l-1,1h-2l-1,1h-27l-1,1h-1l-1,-1h-1l-1,1h-82l-1,-1h-1l-1,-1h-1l-1,-1h-1l-2,-2v-9l1,-1v-7l1,-1v-4l1,-1v-4l1,-1h1l1,1v5l-1,1v6l-1,1v2l-1,1l1,1v7l3,3h3l1,1h25l1,-1h3l1,1h2l1,-1h4l1,1l1,-1h69l1,-1h3l1,-1h2v-1l2,-2v-14l1,-1v-12l-1,-1z" fill="none" stroke="#ff0000"></path><path d="M754,354h2l1,1v10l1,1v6l1,1v7l1,1v3l3,3h2l1,1h72l1,-1h3l1,1l1,-1h35l1,-1h1l3,-3v-9l-1,-1v-2l-1,-1v-4l-1,-1v-2l-1,-1v-3l-1,-1v-2l-1,-1l1,-1h2l2,2v1l1,1v1l1,1v4l1,1v1l1,1v4l1,1v1l1,1v3l1,1v3l1,1v2l-5,5h-2l-1,1h-4l-1,1h-6l-1,1h-88l-1,1h-2l-1,-1h-14l-1,-1h-2l-1,-1h-1l-5,-5v-1l-1,-1v-6l-1,-1v-3l-1,-1v-9l-1,-1v-4l1,-1v-1z" fill="none" stroke="#ff0000"></path><path d="M903,352l1,-1l2,2v2l-1,1l1,1v3l1,1v2l1,1v3l1,1v2l1,1v2l1,1v2l1,1v4l3,3h1l1,1h3l1,1h83l1,-1h28l1,-1h1l3,-3v-4l1,-1v-1l-1,-1v-2l1,-1h1l1,1v3l2,2v2l1,1v4l-3,3h-1l-1,1h-5l-1,1h-8l-1,1h-66l-1,1h-1l-1,-1h-5l-1,1h-23l-1,-1h-8l-1,-1h-1l-1,-1h-1l-1,-1h-1l-3,-3v-1l-1,-1v-1l-1,-1v-3l-1,-1v-1l-1,-1v-3l-1,-1v-2l-1,-1v-4l-1,-1v-1l-1,-1v-6l2,-2z" fill="none" stroke="#ff0000"></path><path d="M654,291l2,2v9l1,1v16l1,1v14l1,1v3l2,2h1l1,1h3l1,1h10l1,-1h60l1,-1h27l1,-1h1l1,-1h1l1,-1v-1l1,-1v-5l-1,-1v-4l-1,-1v-5l-1,-1v-4l-1,-1v-6l-1,-1v-4l-1,-1v-5l-1,-1v-3l1,-1h1l3,3v1l1,1v5l1,1v5l1,1v4l1,1v5l1,1v4l1,1v5l1,1v8l-3,3h-1l-1,1h-1l-1,1h-4l-1,1h-13l-1,1h-88l-1,-1h-2l-1,-1h-1l-1,-1h-1l-2,-2v-1l-1,-1v-5l-1,-1v-17l-1,-1v-14l-1,-1l1,-1v-3l1,-1v-1z" fill="none" stroke="#ff0000"></path><path d="M630,292l1,-1h1l1,1h1l2,2v2l1,1v27l1,1v13l-1,1v1l-2,2h-1l-2,2h-2l-1,1h-5l-1,1h-36l-1,1h-62l-1,-1h-3l-1,-1h-2l-3,-3v-1l-1,-1v-4l1,-1v-11l1,-1v-9l1,-1v-9l1,-1v-5l1,-1v-1l2,-2h1l1,1v7l-1,1v7l-1,1v12l-1,1v16l2,2h2l1,1h12l1,-1h6l1,1h2l1,-1l1,1h9l1,-1h58l1,-1h10l1,-1h1l2,-2v-2l1,-1l-1,-1v-24l-1,-1z" fill="none" stroke="#ff0000"></path><path d="M922,287h2l1,1v3l-1,1l1,1v1l1,1v2l1,1v1l1,1v4l2,2v3l1,1v1l1,1v3l2,2v2l1,1v2l1,1v3l1,1v1l1,1v3l1,1v1l1,1h1l1,1h1l1,1h3l1,1h17l1,-1h80l1,-1h3l1,-1h1v-1l1,-1v-1l1,-1v-1l2,-2l1,1v1l1,1v2l1,1l-1,1v1l-2,2h-1l-1,1h-3l-1,1h-4l-1,1h-40l-1,1h-58l-1,-1h-4l-1,-1h-1l-1,-1h-1l-4,-4v-1l-1,-1v-1l-1,-1v-2l-1,-1v-2l-1,-1v-2l-1,-1v-2l-1,-1v-1l-1,-1v-2l-1,-1v-2l-1,-1v-2l-1,-1v-2l-1,-1v-3l-1,-1v-2l-1,-1v-1l-1,-1v-2l-1,-1v-1l1,-1v-1z" fill="none" stroke="#ff0000"></path><path d="M1057,286l1,-1h2l1,1v1l-1,1v4l2,2v2l2,2v2l2,2v1l1,1v1l1,1v1l1,1v1l1,1v1l1,1v1l1,1v1l2,2v2l1,1v1l1,1v1l1,1v1l1,1v1l2,2v1l1,1v1l2,2h1l1,1h1l1,1h4l1,1h8l1,-1h55l1,-1h34l1,-1h2l2,-2v-2l2,-2l2,2v1l1,1v1l-1,1v1l-2,2h-2l-1,1h-5l-1,1h-17l-1,1h-68l-1,1h-1l-1,-1h-15l-1,-1h-1l-1,-1h-1l-1,-1h-1l-6,-6v-1l-1,-1v-1l-1,-1v-1l-1,-1v-1l-1,-1v-1l-1,-1v-1l-1,-1v-1l-1,-1v-1l-1,-1v-1l-1,-1v-1l-1,-1v-1l-1,-1v-1l-1,-1v-1l-1,-1v-1l-1,-1v-1l-1,-1v-1l-1,-1v-1l-1,-1v-2l-2,-2v-5l2,-2z" fill="none" stroke="#ff0000"></path><path d="M566,237l1,-1l1,1h2l3,3v9l-1,1v16l-1,1v11l-4,4h-1l-1,1h-2l-1,1h-7l-1,1h-53l-1,1h-34l-1,-1h-4l-1,-1h-2l-1,-1h-1l-2,-2v-7l1,-1v-6l1,-1v-5l1,-1v-4l1,-1v-5l1,-1v-4l1,-1v-2l2,-2h1l1,1v3l-1,1v6l-1,1v3l-1,1v5l-1,1v6l-1,1v10l1,1h1l1,1h4l1,1h5l1,-1h2l1,1h2l1,-1h77l1,-1h4l1,-1h1l2,-2v-21l1,-1z" fill="none" stroke="#ff0000"></path><path d="M714,235h2l1,1v8l1,1v6l1,1v6l1,1v6l1,1v9l2,2h1l1,1h3l1,1h9l1,-1h49l1,-1h33l1,-1h2l1,-1v-1l1,-1v-1l-1,-1v-2l1,-1l-1,-1v-2l-1,-1v-5l-1,-1v-2l-1,-1v-3l-1,-1v-2l-1,-1v-5l-1,-1v-2l-1,-1v-3l1,-1h1l2,2v1l1,1v3l1,1v2l1,1v4l1,1v2l1,1v5l1,1v2l1,1v3l1,1v3l1,1v5l-3,3h-1l-1,1h-4l-1,1h-16l-1,1h-61l-1,1h-2l-1,-1h-3l-1,1h-3l-1,-1h-8l-1,-1h-2l-1,-1h-1l-4,-4v-5l-1,-1v-5l-1,-1v-11l-1,-1v-5l-1,-1v-8z" fill="none" stroke="#ff0000"></path><path d="M694,235l4,4v5l1,1v9l1,1v8l1,1v13l-3,3h-1l-1,1h-1l-1,1h-3l-1,1h-18l-1,1h-77l-1,-1h-3l-1,-1h-1l-3,-3v-38l1,-1v-1l1,-1h1l1,-1l1,1v1l1,1v2l-1,1l1,1v1l-1,1v29l1,1v2l1,1h1l1,1h54l1,-1h41l1,-1h2l2,-2v-1l1,-1v-4l-1,-1v-11l-1,-1v-7l-1,-1v-8l-1,-1v-3z" fill="none" stroke="#ff0000"></path><path d="M839,234l1,-1h1l1,1v4l1,1v4l1,1v1l1,1v4l1,1v1l1,1v4l1,1v1l1,1v4l1,1v1l1,1v5l1,1v1l2,2h2l1,1h42l1,-1h53l1,-1h1l1,-1h1v-2l1,-1v-3l1,-1v-1l1,-1l2,2v2l1,1v1l1,1v2l-3,3h-1l-1,1h-2l-1,1h-6l-1,1h-51l-1,1h-2l-1,-1h-1l-1,1h-34l-1,-1h-4l-1,-1h-1l-2,-2h-1l-1,-1v-1l-2,-2v-4l-1,-1v-2l-1,-1v-3l-1,-1v-2l-1,-1v-3l-1,-1v-2l-1,-1v-4l-1,-1v-2l-1,-1v-8l1,-1z" fill="none" stroke="#ff0000"></path><path d="M965,232l1,-1h2l1,1v2l-1,1l1,1v2l1,1v1l2,2v3l1,1v2l2,2v3l2,2v2l2,2v3l2,2v2l1,1v1l1,1v2l3,3h1l1,1h4l1,1h8l1,-1h49l1,-1h34l1,-1h2l1,-1v-1l1,-1v-2l1,-1h1l2,2v1l1,1v2l-3,3h-2l-1,1h-5l-1,1h-14l-1,1h-82l-1,-1h-2l-1,-1h-1l-5,-5v-2l-2,-2v-2l-1,-1v-1l-1,-1v-2l-1,-1v-1l-1,-1v-2l-2,-2v-3l-2,-2v-2l-1,-1v-1l-1,-1v-3l-2,-2v-6l1,-1z" fill="none" stroke="#ff0000"></path><path d="M1092,230l1,-1h3l1,1l-1,1v3l1,1v1l1,1v1l1,1v1l2,2v1l1,1v1l2,2v1l1,1v1l2,2v1l1,1v1l1,1v1l2,2v2l2,2v1l2,2v1l1,1v1l3,3h2l1,1h81l1,-1h1l1,1h2l1,-1h13l1,-1v-1l3,-3h1l1,1v1l1,1v2l-2,2h-1l-1,1h-3l-1,1h-17l-1,1h-66l-1,1h-2l-1,-1h-13l-1,-1h-2l-1,-1h-1l-6,-6v-1l-2,-2v-1l-2,-2v-2l-2,-2v-1l-2,-2v-2l-2,-2v-1l-1,-1v-1l-1,-1v-1l-2,-2v-1l-1,-1v-1l-1,-1v-1l-2,-2v-1l-1,-1v-1l-1,-1v-1l1,-1v-1l1,-1z" fill="none" stroke="#ff0000"></path><path d="M539,189l1,-1h3l1,1v1l1,1v1l1,1l-1,1v8l-1,1v15l-1,1v5l-1,1v1l-2,2h-1l-1,1h-1l-1,1h-7l-1,1h-60l-1,1h-3l-1,-1h-1l-1,1h-14l-1,-1h-8l-1,-1h-2l-2,-2v-1l-1,-1v-3l1,-1v-6l1,-1v-3l1,-1v-6l1,-1v-1l1,-1v-6l1,-1v-1l3,-3l1,1v3l-1,1v1l-1,1v6l-1,1v2l-1,1v5l-1,1v2l-1,1v2l1,1v5l1,1h1l1,1h65l1,-1h1l1,1h5l1,-1h19l1,-1h1l1,-1v-1l1,-1v-1l-1,-1v-6l1,-1v-7l1,-1v-10l1,-1z" fill="none" stroke="#ff0000"></path><path d="M796,185h2l1,1v4l1,1v3l1,1v3l1,1v3l1,1v3l1,1v3l1,1v4l1,1v5h1l1,1h1l1,1h72l1,-1h19l1,-1h1l1,-1v-4l1,-1v-1l-1,-1v-2l-1,-1v-2l-1,-1v-2l-1,-1v-2l-1,-1v-1l-1,-1v-3l-1,-1v-1l-1,-1v-3l-1,-1v-1l-1,-1l2,-2l2,2v1l1,1v1l1,1v2l1,1v2l1,1v1l1,1v2l1,1v2l1,1v2l1,1v2l1,1v2l1,1v2l1,1v1l1,1v1l-1,1v1l-1,1h-1l-1,1h-1l-1,1h-3l-1,1h-32l-1,1h-59l-1,-1h-3l-1,-1h-1l-3,-3v-1l-1,-1v-3l-1,-1v-2l-1,-1v-5l-1,-1v-1l-1,-1v-5l-1,-1v-4l-1,-1v-7z" fill="none" stroke="#ff0000"></path><path d="M778,185l4,4v4l1,1v2l1,1v5l1,1v3l1,1v5l1,1v2l1,1v7l-2,2h-1l-1,1h-2l-1,1h-6l-1,1h-39l-1,1h-45l-1,-1h-3l-1,-1h-2l-1,-1h-1l-2,-2v-1l-1,-1v-12l-1,-1v-13l-1,-1v-5l3,-3h2l1,1v12l1,1v17l1,1l-1,1v1l3,3h2l1,1h38l1,-1h50l1,-1h2l1,-1v-1l1,-1v-4l-1,-1v-4l-1,-1v-5l-1,-1v-4l-1,-1v-5l-1,-1v-3l-1,-1v-2z" fill="none" stroke="#ff0000"></path><path d="M915,183h2l1,1v5l2,2v3l1,1v1l1,1v3l2,2v3l2,2v4l2,2v3l1,1v1l3,3h3l1,1h20l1,-1h49l1,-1h20l1,-1h1v-2l1,-1v-3l2,-2l1,1v1l1,1v1l1,1v4l-2,2h-1l-1,1h-5l-1,1h-14l-1,1h-78l-1,-1h-2l-1,-1h-1l-1,-1v-1l-2,-2v-1l-1,-1v-1l-1,-1v-2l-1,-1v-1l-1,-1v-3l-2,-2v-3l-1,-1v-1l-1,-1v-2l-1,-1v-1l-1,-1v-2l-1,-1v-1l-1,-1v-3z" fill="none" stroke="#ff0000"></path><path d="M955,138h2l1,1v4l1,1v1l1,1v1l1,1v2l2,2v2l1,1v1l1,1v1l1,1v2l1,1v1l1,1v1l1,1v2l1,1v1l1,1h1l1,1h2l1,1h20l1,-1h64l1,-1h1l1,-1v-1l1,-1v-2l1,-1l1,1h1l2,2v4l-1,1h-1l-1,1h-2l-1,1h-9l-1,1h-69l-1,1h-2l-1,-1h-10l-1,-1h-1l-2,-2h-1l-1,-1v-1l-1,-1v-1l-1,-1v-1l-1,-1v-1l-1,-1v-2l-1,-1v-1l-1,-1v-1l-1,-1v-1l-1,-1v-1l-1,-1v-1l-1,-1v-2l-1,-1v-1l-1,-1v-1l-1,-1v-3z" fill="none" stroke="#ff0000"></path><path d="M1068,136h2l2,2l-1,1l1,1v2l2,2v1l2,2v1l1,1v1l1,1v1l2,2v1l2,2v1l2,2v1l2,2v1l2,2v1l2,2h1l1,1h3l1,1h18l1,-1h61l1,-1h4l1,-1v-1l1,-1h3l2,2v2l-2,2h-2l-1,1h-7l-1,1h-41l-1,1l-1,-1h-4l-1,1h-34l-1,-1h-3l-1,-1h-1l-1,-1h-1l-4,-4v-1l-2,-2v-1l-1,-1v-1l-2,-2v-1l-1,-1v-1l-2,-2v-1l-1,-1v-1l-2,-2v-1l-1,-1v-1l-1,-1v-1l-2,-2v-1l-1,-1v-2z" fill="none" stroke="#ff0000"></path><path d="M276,380h8" fill="none" stroke="#0000ff"></path><path d="M151,402h52" fill="none" stroke="#0000ff"></path><path d="M428,379h8" fill="none" stroke="#0000ff"></path><path d="M452,377h3M579,377h8" fill="none" stroke="#0000ff"></path><path d="M753,376h6M884,376h5" fill="none" stroke="#0000ff"></path><path d="M904,373h6M1038,373h3" fill="none" stroke="#0000ff"></path><path d="M651,313h6M768,313h6" fill="none" stroke="#0000ff"></path><path d="M653,335h6M772,335h5" fill="none" stroke="#0000ff"></path><path d="M516,313h4M631,313h6" fill="none" stroke="#0000ff"></path><path d="M514,335h5M632,335h6" fill="none" stroke="#0000ff"></path><path d="M924,309h6" fill="none" stroke="#0000ff"></path><path d="M931,331h7M1054,331h4" fill="none" stroke="#0000ff"></path><path d="M1061,307h7" fill="none" stroke="#0000ff"></path><path d="M1072,329h8M1197,329h2" fill="none" stroke="#0000ff"></path><path d="M457,258h4M565,258h7" fill="none" stroke="#0000ff"></path><path d="M454,280h6M460,280h1M557,280h4M561,280h8" fill="none" stroke="#0000ff"></path><path d="M713,257h6M824,257h4" fill="none" stroke="#0000ff"></path><path d="M718,279h11M729,279h9M738,279h90M828,279h1" fill="none" stroke="#0000ff"></path><path d="M585,257h5M694,257h6" fill="none" stroke="#0000ff"></path><path d="M585,279h7M592,279h1M649,279h41M690,279h9" fill="none" stroke="#0000ff"></path><path d="M841,255h6" fill="none" stroke="#0000ff"></path><path d="M848,277h1M849,277h8M857,277h42M899,277h61M960,277h1" fill="none" stroke="#0000ff"></path><path d="M969,253h6" fill="none" stroke="#0000ff"></path><path d="M980,275h8M988,275h4M1002,275h49M1051,275h43" fill="none" stroke="#0000ff"></path><path d="M1099,251h7" fill="none" stroke="#0000ff"></path><path d="M1113,273h9M1122,273h81M1203,273h3M1206,273h2M1208,273h20" fill="none" stroke="#0000ff"></path><path d="M435,210h3M537,210h7" fill="none" stroke="#0000ff"></path><path d="M447,232h14M464,232h3" fill="none" stroke="#0000ff"></path><path d="M797,207l7,0M903,207h4" fill="none" stroke="#0000ff"></path><path d="M676,207h6M780,207h6" fill="none" stroke="#0000ff"></path><path d="M689,229l45,0" fill="none" stroke="#0000ff"></path><path d="M918,205h6" fill="none" stroke="#0000ff"></path><path d="M960,160h6" fill="none" stroke="#0000ff"></path><path d="M1075,158h7" fill="none" stroke="#0000ff"></path><text x="276" y="380" fill="#000000" stroke="none" font-family="Helvetica Neue" font-weight="normal" font-size="19" text-anchor="start"> </text><text x="452" y="377" fill="#000000" stroke="none" font-family="Helvetica Neue" font-weight="normal" font-size="19" text-anchor="start">­-</text><text x="884" y="376" fill="#000000" stroke="none" font-family="Helvetica Neue" font-weight="normal" font-size="19" text-anchor="start">­-</text><text x="1038" y="373" fill="#000000" stroke="none" font-family="Helvetica Neue" font-weight="normal" font-size="19" text-anchor="start">­-</text><text x="768" y="313" fill="#000000" stroke="none" font-family="Helvetica Neue" font-weight="normal" font-size="19" text-anchor="start">­-</text><text x="516" y="313" fill="#000000" stroke="none" font-family="Helvetica Neue" font-weight="normal" font-size="19" text-anchor="start">­-</text><text x="632" y="335" fill="#000000" stroke="none" font-family="Helvetica Neue" font-weight="normal" font-size="19" text-anchor="start">­-</text><text x="1054" y="331" fill="#000000" stroke="none" font-family="Helvetica Neue" font-weight="normal" font-size="19" text-anchor="start">­-</text><text x="565" y="258" fill="#000000" stroke="none" font-family="Helvetica Neue" font-weight="normal" font-size="19" text-anchor="start">­-</text><text x="718" y="279" fill="#000000" stroke="none" font-family="Helvetica Neue" font-weight="normal" font-size="19" text-anchor="start">­-</text><text x="738" y="279" fill="#000000" stroke="none" font-family="Helvetica Neue" font-weight="normal" font-size="19" text-anchor="start">­nas max­-</text><text x="649" y="279" fill="#000000" stroke="none" font-family="Helvetica Neue" font-weight="normal" font-size="19" text-anchor="start">­cipit</text><text x="848" y="277" fill="#000000" stroke="none" font-family="Helvetica Neue" font-weight="normal" font-size="19" text-anchor="start">­-</text><text x="857" y="277" fill="#000000" stroke="none" font-family="Helvetica Neue" font-weight="normal" font-size="19" text-anchor="start">­-</text><text x="899" y="277" fill="#000000" stroke="none" font-family="Helvetica Neue" font-weight="normal" font-size="19" text-anchor="start">tesque</text><text x="988" y="275" fill="#000000" stroke="none" font-family="Helvetica Neue" font-weight="normal" font-size="19" text-anchor="start">­-</text><text x="1002" y="275" fill="#000000" stroke="none" font-family="Helvetica Neue" font-weight="normal" font-size="19" text-anchor="start">lis ut </text><text x="1051" y="275" fill="#000000" stroke="none" font-family="Helvetica Neue" font-weight="normal" font-size="19" text-anchor="start">tem­-</text><text x="1122" y="273" fill="#000000" stroke="none" font-family="Helvetica Neue" font-weight="normal" font-size="19" text-anchor="start">con­va­l­lis </text><text x="1208" y="273" fill="#000000" stroke="none" font-family="Helvetica Neue" font-weight="normal" font-size="19" text-anchor="start">Ut</text><text x="537" y="210" fill="#000000" stroke="none" font-family="Helvetica Neue" font-weight="normal" font-size="19" text-anchor="start">­-</text><text x="676" y="207" fill="#000000" stroke="none" font-family="Helvetica Neue" font-weight="normal" font-size="19" text-anchor="start">­-</text><text x="689" y="229" fill="#000000" stroke="none" font-family="Helvetica Neue" font-weight="normal" font-size="19" text-anchor="start">fer­-</text><text x="960" y="160" fill="#000000" stroke="none" font-family="Helvetica Neue" font-weight="normal" font-size="19" text-anchor="start">­-</text><path d="M276,380h8" fill="none" stroke="#0000ff"></path><path d="M151,402h52" fill="none" stroke="#0000ff"></path><path d="M428,379h8" fill="none" stroke="#0000ff"></path><path d="M452,377h3M579,377h8" fill="none" stroke="#0000ff"></path><path d="M753,376h6M884,376h5" fill="none" stroke="#0000ff"></path><path d="M904,373h6M1038,373h3" fill="none" stroke="#0000ff"></path><path d="M651,313h6M768,313h6" fill="none" stroke="#0000ff"></path><path d="M653,335h6M772,335h5" fill="none" stroke="#0000ff"></path><path d="M516,313h4M631,313h6" fill="none" stroke="#0000ff"></path><path d="M514,335h5M632,335h6" fill="none" stroke="#0000ff"></path><path d="M924,309h6" fill="none" stroke="#0000ff"></path><path d="M931,331h7M1054,331h4" fill="none" stroke="#0000ff"></path><path d="M1061,307h7" fill="none" stroke="#0000ff"></path><path d="M1072,329h8M1197,329h2" fill="none" stroke="#0000ff"></path><path d="M457,258h4M565,258h7" fill="none" stroke="#0000ff"></path><path d="M454,280h6M460,280h1M557,280h4M561,280h8" fill="none" stroke="#0000ff"></path><path d="M713,257h6M824,257h4" fill="none" stroke="#0000ff"></path><path d="M718,279h11M729,279h9M738,279h90M828,279h1" fill="none" stroke="#0000ff"></path><path d="M585,257h5M694,257h6" fill="none" stroke="#0000ff"></path><path d="M585,279h7M592,279h1M649,279h41M690,279h9" fill="none" stroke="#0000ff"></path><path d="M841,255h6" fill="none" stroke="#0000ff"></path><path d="M848,277h1M849,277h8M857,277h42M899,277h61M960,277h1" fill="none" stroke="#0000ff"></path><path d="M969,253h6" fill="none" stroke="#0000ff"></path><path d="M980,275h8M988,275h4M1002,275h49M1051,275h43" fill="none" stroke="#0000ff"></path><path d="M1099,251h7" fill="none" stroke="#0000ff"></path><path d="M1113,273h9M1122,273h81M1203,273h3M1206,273h2M1208,273h20" fill="none" stroke="#0000ff"></path><path d="M435,210h3M537,210h7" fill="none" stroke="#0000ff"></path><path d="M447,232h14M464,232h3" fill="none" stroke="#0000ff"></path><path d="M797,207l7,0M903,207h4" fill="none" stroke="#0000ff"></path><path d="M676,207h6M780,207h6" fill="none" stroke="#0000ff"></path><path d="M689,229l45,0" fill="none" stroke="#0000ff"></path><path d="M918,205h6" fill="none" stroke="#0000ff"></path><path d="M960,160h6" fill="none" stroke="#0000ff"></path><path d="M1075,158h7" fill="none" stroke="#0000ff"></path><text x="276" y="380" fill="#000000" stroke="none" font-family="Helvetica Neue" font-weight="normal" font-size="19" text-anchor="start"> </text><text x="452" y="377" fill="#000000" stroke="none" font-family="Helvetica Neue" font-weight="normal" font-size="19" text-anchor="start">­-</text><text x="884" y="376" fill="#000000" stroke="none" font-family="Helvetica Neue" font-weight="normal" font-size="19" text-anchor="start">­-</text><text x="1038" y="373" fill="#000000" stroke="none" font-family="Helvetica Neue" font-weight="normal" font-size="19" text-anchor="start">­-</text><text x="768" y="313" fill="#000000" stroke="none" font-family="Helvetica Neue" font-weight="normal" font-size="19" text-anchor="start">­-</text><text x="516" y="313" fill="#000000" stroke="none" font-family="Helvetica Neue" font-weight="normal" font-size="19" text-anchor="start">­-</text><text x="632" y="335" fill="#000000" stroke="none" font-family="Helvetica Neue" font-weight="normal" font-size="19" text-anchor="start">­-</text><text x="1054" y="331" fill="#000000" stroke="none" font-family="Helvetica Neue" font-weight="normal" font-size="19" text-anchor="start">­-</text><text x="565" y="258" fill="#000000" stroke="none" font-family="Helvetica Neue" font-weight="normal" font-size="19" text-anchor="start">­-</text><text x="718" y="279" fill="#000000" stroke="none" font-family="Helvetica Neue" font-weight="normal" font-size="19" text-anchor="start">­-</text><text x="738" y="279" fill="#000000" stroke="none" font-family="Helvetica Neue" font-weight="normal" font-size="19" text-anchor="start">­nas max­-</text><text x="649" y="279" fill="#000000" stroke="none" font-family="Helvetica Neue" font-weight="normal" font-size="19" text-anchor="start">­cipit</text><text x="848" y="277" fill="#000000" stroke="none" font-family="Helvetica Neue" font-weight="normal" font-size="19" text-anchor="start">­-</text><text x="857" y="277" fill="#000000" stroke="none" font-family="Helvetica Neue" font-weight="normal" font-size="19" text-anchor="start">­-</text><text x="899" y="277" fill="#000000" stroke="none" font-family="Helvetica Neue" font-weight="normal" font-size="19" text-anchor="start">tesque</text><text x="988" y="275" fill="#000000" stroke="none" font-family="Helvetica Neue" font-weight="normal" font-size="19" text-anchor="start">­-</text><text x="1002" y="275" fill="#000000" stroke="none" font-family="Helvetica Neue" font-weight="normal" font-size="19" text-anchor="start">lis ut </text><text x="1051" y="275" fill="#000000" stroke="none" font-family="Helvetica Neue" font-weight="normal" font-size="19" text-anchor="start">tem­-</text><text x="1122" y="273" fill="#000000" stroke="none" font-family="Helvetica Neue" font-weight="normal" font-size="19" text-anchor="start">con­va­l­lis </text><text x="1208" y="273" fill="#000000" stroke="none" font-family="Helvetica Neue" font-weight="normal" font-size="19" text-anchor="start">Ut</text><text x="537" y="210" fill="#000000" stroke="none" font-family="Helvetica Neue" font-weight="normal" font-size="19" text-anchor="start">­-</text><text x="676" y="207" fill="#000000" stroke="none" font-family="Helvetica Neue" font-weight="normal" font-size="19" text-anchor="start">­-</text><text x="689" y="229" fill="#000000" stroke="none" font-family="Helvetica Neue" font-weight="normal" font-size="19" text-anchor="start">fer­-</text><text x="960" y="160" fill="#000000" stroke="none" font-family="Helvetica Neue" font-weight="normal" font-size="19" text-anchor="start">­-</text></g></svg>